<svg width="121" height="121" viewBox="0 0 121 121" fill="none" xmlns="http://www.w3.org/2000/svg">
<path d="M107.166 60.5C107.166 59.1085 107.104 57.7775 106.98 56.386L118.553 47.8555C121.042 46.0405 121.726 42.6525 120.171 39.9905L108.535 20.449C107.789 19.1675 106.582 18.1993 105.147 17.7302C103.711 17.2612 102.148 17.3245 100.757 17.908L87.3798 23.4135C85.0776 21.8405 82.6509 20.449 80.0998 19.2995L78.2954 5.324C77.9221 2.299 75.2465 0 72.1355 0H48.9268C45.7535 0 43.0779 2.299 42.7046 5.324L40.9002 19.2995C38.3491 20.449 35.9224 21.8405 33.6202 23.4135L20.2426 17.908C17.3804 16.698 14.0204 17.787 12.4649 20.449L0.829402 40.051C-0.72614 42.713 -0.0417014 46.0405 2.44717 47.916L14.0204 56.4465C13.7609 59.1632 13.7609 61.8973 14.0204 64.614L2.44717 73.1445C-0.0417014 74.9595 -0.72614 78.3475 0.829402 81.0095L12.4649 100.551C14.0204 103.213 17.3804 104.302 20.2426 103.092L33.6202 97.5865C35.9224 99.1595 38.3491 100.551 40.9002 101.7L42.7046 115.676C43.0779 118.701 45.7535 121 48.8645 121H72.0732C75.1843 121 77.8599 118.701 78.2332 115.676L80.0376 101.7C82.5887 100.551 85.0153 99.1595 87.3175 97.5865L100.695 103.092C103.557 104.302 106.917 103.213 108.473 100.551L120.108 81.0095C121.664 78.3475 120.979 75.02 118.491 73.1445L106.917 64.614C107.104 63.2225 107.166 61.8915 107.166 60.5ZM60.7489 81.675C48.7401 81.675 38.9713 72.1765 38.9713 60.5C38.9713 48.8235 48.7401 39.325 60.7489 39.325C72.7577 39.325 82.5265 48.8235 82.5265 60.5C82.5265 72.1765 72.7577 81.675 60.7489 81.675Z" fill="#5F2835"/>
</svg>
