<svg width="26" height="29" viewBox="0 0 26 29" fill="none" xmlns="http://www.w3.org/2000/svg">
<path d="M5.03226 3.54857L0 0C1.67742 2.05905 3.87142 4.86286 3.35474 4.86286C1.57878 4.86286 0.335502 6.98235 0.387538 8.41143C0.5 11.5 5.84231 23 9.54839 23C13.9359 23 17.0327 13.4057 18.5811 10.12C19.8198 7.49143 18.4516 5.0819 16.9032 4.86286L20 0L14.4516 3.54857V0L11.871 3.54857L9.54839 0L8.12903 3.54857L5.03226 0V3.54857Z" fill="#753443"/>
<path d="M16.5 7.5C17.3202 7.5 18.1008 7.66397 18.8115 7.96094C20.9786 8.86653 22.5 11.0064 22.5 13.5C22.5 16.8137 19.8137 19.5 16.5 19.5C15.7194 19.5 14.9747 19.3514 14.292 19.0811C12.07 18.2012 10.5 16.0332 10.5 13.5C10.5 10.1863 13.1863 7.5 16.5 7.5Z" fill="#D9D9D9" stroke="#753443"/>
<path d="M20 20L24 27.5" stroke="#753443" stroke-width="3" stroke-linecap="round" stroke-linejoin="round"/>
</svg>
